<svg xmlns="http://www.w3.org/2000/svg" width="173" height="44"><g fill="none" fill-rule="evenodd"><path fill="#FFF" d="M0 0h173v43.032H0z"></path><path fill="#E31B23" d="M0 43.032h42.872V.047H0z"></path><path d="M22.263 38.392s-.271-6.762-.271-7.436c0-.673.565-.906 1.24-.758.674.146 6.993 1.432 6.993 1.432s-.485-1.368-.821-2.38c-.339-1.008.104-1.195.336-1.405.231-.215 7.053-6.112 7.053-6.112l-1.112-.55c-.674-.312-.57-.881-.461-1.26.105-.381 1.227-4.323 1.227-4.323s-2.943.664-3.632.77c-.55.08-.738-.173-.907-.55-.167-.38-.885-2.105-.885-2.105s-3.607 3.993-3.684 4.061c-.695.634-1.37.15-1.24-.589.114-.674 1.85-8.654 1.85-8.654S26.031 9.67 25.4 10.049c-.631.38-.968.315-1.306-.297-.337-.61-2.699-5.348-2.699-5.348h.003s-2.364 4.739-2.7 5.348c-.339.612-.674.678-1.307.297-.63-.378-2.55-1.516-2.55-1.516s1.74 7.98 1.854 8.654c.127.74-.546 1.223-1.241.59-.08-.069-3.684-4.062-3.684-4.062s-.72 1.726-.887 2.105c-.167.377-.357.63-.904.55-.689-.106-3.751-.77-3.751-.77s1.241 3.942 1.347 4.323c.106.379.211.948-.465 1.26l-1.112.55s6.823 5.897 7.055 6.112c.234.21.673.397.335 1.405-.335 1.012-.821 2.38-.821 2.38s6.318-1.286 6.993-1.431c.675-.15 1.242.084 1.242.757 0 .674-.271 7.436-.271 7.436h1.732z" fill="#FFF"></path><path d="M141.126 36.35h-2.502V23.997h2.502c3.597 0 5.943 2.11 5.943 6.098 0 3.831-2.111 6.255-5.943 6.255m-.155-16.262h-7.116v20.17h7.116c6.488 0 10.867-3.517 10.867-10.006 0-6.724-4.613-10.164-10.867-10.164M108.915 40.26h-4.848l-8.834-12.98v12.98H90.62V20.087h5.003l8.679 12.821v-12.82h4.613zm-33.463-7.663l2.502-7.427 2.658 7.427h-5.16zm5.239-12.587h-5.083l-7.506 20.249h4.848l1.407-3.988h7.35l1.407 3.988h5.082l-7.505-20.25zm38.153 12.587l2.502-7.427 2.58 7.427h-5.082zm5.082-12.587H119l-7.583 20.249h4.847l1.485-3.988h7.193l1.486 3.988h5.082l-7.584-20.25zm35.652 12.587l2.502-7.427 2.58 7.427h-5.082zm5.082-12.587h-5.004l-7.35 20.249h4.692l1.407-3.988h7.27l1.408 3.988h5.16l-7.583-20.25zM66.383 37.914c-.939 1.094-3.127 2.736-7.271 2.736-5.943 0-10.556-3.91-10.556-10.398 0-6.568 4.692-10.477 10.556-10.477 4.221 0 6.41 1.72 6.88 2.267l-1.407 3.831c-.392-.39-2.502-1.954-5.16-1.954-3.519 0-6.177 2.267-6.177 6.176 0 4.066 2.814 6.255 6.176 6.255 2.503 0 4.3-1.016 5.395-2.11l1.564 3.674zm84.673-24.784c-2.268 0-3.909-1.564-3.909-3.988 0-2.58 1.641-4.066 3.909-4.066s3.753 1.485 3.753 4.066c0 2.424-1.485 3.987-3.753 3.987m0-10.476c-3.753 0-6.724 2.423-6.724 6.49 0 4.142 2.971 6.566 6.724 6.566 3.674 0 6.645-2.424 6.645-6.567 0-4.066-2.97-6.49-6.645-6.49M54.42 13.051H52.7V5.233h1.72c2.19 0 3.753 1.329 3.753 3.91 0 2.423-1.329 3.908-3.752 3.908m-.235-10.164h-4.3v12.588h4.3c4.066 0 6.803-2.19 6.803-6.333 0-4.065-2.894-6.255-6.803-6.255m59.342 12.588h-3.05l-5.63-8.132v8.132h-2.736V2.887h3.128l5.472 8.132V2.887h2.816zm57.777 0h-3.05l-5.55-8.132v8.132h-2.736V2.887h3.128l5.472 8.132V2.887h2.736zm-51.523-4.691l1.72-5.004 1.72 5.004h-3.44zm3.284-7.975h-3.05l-4.69 12.666h2.893l.86-2.58h4.848l.859 2.58h3.05l-4.77-12.666zM71.543 15.475h-8.366V2.887h8.131v2.267h-5.316V7.97h5.082v2.268h-5.082v2.893h5.55zm6.411.235c-1.955 0-3.44-.86-4.613-1.956l1.407-2.032c.938.938 2.346 1.564 3.362 1.564.939 0 1.642-.47 1.642-1.33 0-2.267-5.785-1.407-5.785-5.473 0-2.423 1.955-3.83 4.378-3.83 1.72 0 3.283.703 4.222 1.564L81.315 6.17c-.703-.704-1.876-1.251-2.97-1.251-.782 0-1.486.391-1.486 1.251 0 2.189 5.864 1.33 5.864 5.473 0 2.58-2.19 4.065-4.77 4.065m58.561-10.553h-3.284v10.32h-2.814V5.155h-3.284V2.887h9.382zm-43.08 0H90.15v10.32h-2.736V5.155h-3.362V2.887h9.382zm45.737 10.32h2.816V2.888h-2.816zm-43.001 0h2.737V2.888H96.17z" fill="#262626"></path></g></svg>